HIERARCHY
ROOT root     
{
	OFFSET 0.0000 0.0000 0.0000
	CHANNELS 6 Xposition Yposition Zposition Zrotation Yrotation Xrotation
	JOINT pelvis   
	{
		OFFSET 0.0000 0.0000 0.0000
		CHANNELS 3 Zrotation Yrotation Xrotation
		JOINT thorax   
		{
			OFFSET 0.0000 23.0750 -5.0000
			CHANNELS 3 Zrotation Yrotation Xrotation
			JOINT rclavicle
			{
				OFFSET 0.0000 28.0009 0.0000
				CHANNELS 3 Zrotation Yrotation Xrotation
				JOINT rhumerus 
				{
					OFFSET -18.5725 5.5939 0.0000
					CHANNELS 3 Zrotation Yrotation Xrotation
					JOINT rradius  
					{
						OFFSET -24.8459 0.0000 0.0000
						CHANNELS 3 Zrotation Yrotation Xrotation
						JOINT rhand    
						{
							OFFSET -24.5477 0.0000 0.0000
							CHANNELS 3 Zrotation Yrotation Xrotation
							End Site
							{
								OFFSET -8.1826 0.0000 0.0000
							}
						}
					}
				}
			}
			JOINT lclavicle
			{
				OFFSET 0.0000 28.0009 0.0000
				CHANNELS 3 Zrotation Yrotation Xrotation
				JOINT lhumerus 
				{
					OFFSET 18.5725 5.5939 0.0000
					CHANNELS 3 Zrotation Yrotation Xrotation
					JOINT lradius  
					{
						OFFSET 24.8459 0.0000 0.0000
						CHANNELS 3 Zrotation Yrotation Xrotation
						JOINT lhand    
						{
							OFFSET 24.5477 0.0000 0.0000
							CHANNELS 3 Zrotation Yrotation Xrotation
							End Site
							{
								OFFSET 8.1826 0.0000 0.0000
							}
						}
					}
				}
			}
			JOINT head     
			{
				OFFSET 0.0000 35.2030 0.0000
				CHANNELS 3 Zrotation Yrotation Xrotation
				End Site
				{
					OFFSET 0.0000 11.7343 0.0000
				}
			}
		}
		JOINT rfemur   
		{
			OFFSET -8.2817 0.0000 0.0000
			CHANNELS 3 Zrotation Yrotation Xrotation
			JOINT rtibia   
			{
				OFFSET 0.0000 -43.3627 0.0000
				CHANNELS 3 Zrotation Yrotation Xrotation
				JOINT rfoot    
				{
					OFFSET 0.0000 -38.2947 0.0000
					CHANNELS 3 Zrotation Yrotation Xrotation
					JOINT rtoes    
					{
						OFFSET 0.0000 0.0000 16.6054
						CHANNELS 3 Zrotation Yrotation Xrotation
						End Site
						{
							OFFSET 0.0000 0.0000 5.5351
						}
					}
				}
			}
		}
		JOINT lfemur   
		{
			OFFSET 8.2817 0.0000 0.0000
			CHANNELS 3 Zrotation Yrotation Xrotation
			JOINT ltibia   
			{
				OFFSET 0.0000 -43.3627 0.0000
				CHANNELS 3 Zrotation Yrotation Xrotation
				JOINT lfoot    
				{
					OFFSET 0.0000 -38.2947 0.0000
					CHANNELS 3 Zrotation Yrotation Xrotation
					JOINT ltoes    
					{
						OFFSET 0.0000 0.0000 16.6054
						CHANNELS 3 Zrotation Yrotation Xrotation
						End Site
						{
							OFFSET 0.0000 0.0000 5.5351
						}
					}
				}
			}
		}
	}
}
MOTION
Frames: 10
Frame Time: .0333333
11.707 81.155 9.5893 -99.3781 -73.0126 129.981 0 -0 0 -2.35136 -4.66499 16.702 19.9143 -15.1056 7.75451e-05 51.9428 -12.2651 14.42 -180 73.6989 -180 -14.3537 5.10515 -0.643294 -9.2241 13.7551 -2.84891e-05 -45.2991 6.57845 -5.12768 -180 -59.796 180 6.74379 1.1417 0.0672996 13.4992 9.4062 -12.4769 10.6501 5.00395 -103.184 -0 -0 1.3301 -3.7208e-07 -14.0383 22.2274 -5.40337 -1.50367e-05 -66.4577 -1.33457 19.6826 -64.1688 -0 -0 53.2192 6.84536e-06 11.2509 -10.4101 -2.05859 -3.36899e-07 -30.5003 
11.791 80.931 9.5598 -100.14 -72.8517 130.869 0 -0 0 -2.50278 -4.12997 16.7357 19.8667 -14.9718 6.31534e-06 52.1028 -12.0472 14.4142 -180 73.6785 -180 -14.4368 5.14245 -0.651712 -9.40985 13.714 -3.67996e-05 -45.427 6.57937 -5.09572 -180 -59.7432 180 6.73484 1.1057 0.0650991 13.4423 9.2 -13.0722 10.307 5.2162 -103.388 -0 -0 3.39014 1.76193e-05 -12.9613 23.2608 -5.19345 -2.77839e-05 -70.7665 -1.32748 19.8262 -64.6896 -0 -0 53.9103 -7.59198e-06 11.4334 -10.7481 -2.15994 9.11095e-06 -30.4376 
11.846 80.719 9.522 -100.704 -72.6515 131.49 0 -0 0 -2.56594 -3.63041 16.8426 19.8185 -14.8241 -1.56469e-05 52.1901 -11.7724 14.4393 -180 73.6825 -180 -14.4737 5.20052 -0.660799 -9.64675 13.684 -1.00521e-05 -45.6055 6.56976 -5.08552 -180 -59.7126 180 6.75174 1.0821 0.0638007 13.366 8.99401 -13.7253 10.1453 5.42328 -103.449 -0 -0 5.66869 7.49719e-05 -11.2472 24.8047 -4.769 4.89833e-05 -74.6159 -1.22024 19.9658 -65.0989 -0 -0 54.5813 5.63397e-05 11.6056 -11.1047 -2.26526 8.94823e-06 -30.343 
11.871 80.521 9.478 -101.027 -72.433 131.801 0 -0 0 -2.55475 -3.19286 17.0241 19.7795 -14.6603 7.80283e-05 52.2092 -11.4417 14.4921 -180 73.7152 -180 -14.4694 5.27813 -0.670515 -9.9206 13.6672 9.16242e-05 -45.8442 6.55686 -5.08924 -180 -59.7024 180 6.79747 1.0747 0.0637996 13.2859 8.79111 -14.4126 10.1329 5.58628 -103.296 -0 -0 7.92198 2.94695e-05 -9.00092 26.6427 -4.06297 -1.97395e-05 -77.0859 -1.02165 20.0784 -65.3877 -0 -0 55.2164 -5.33124e-05 11.7632 -11.473 -2.37179 9.4467e-06 -30.21 
11.869 80.342 9.4283 -101.107 -72.2085 131.822 0 -0 0 -2.4828 -2.8271 17.2572 19.7544 -14.485 4.83256e-05 52.1632 -11.0607 14.5698 -180 73.7799 -180 -14.4314 5.37206 -0.680598 -10.2141 13.6656 -7.71957e-05 -46.1441 6.54834 -5.09566 -180 -59.7173 180 6.87303 1.0857 0.0651994 13.223 8.59232 -15.1117 10.1882 5.68652 -102.873 -0 -0 9.90267 1.55629e-05 -6.49436 28.5393 -3.11304 1.91471e-05 -77.7902 -0.746988 20.1555 -65.5737 -0 -0 55.8014 -1.61179e-05 11.9013 -11.8338 -2.47475 9.26885e-06 -30.0582 
11.85 80.187 9.3744 -100.973 -71.9929 131.612 0 -0 0 -2.37201 -2.53354 17.5035 19.7467 -14.3031 -0.000155578 52.068 -10.6417 14.6715 -180 73.8842 -180 -14.3698 5.47745 -0.690999 -10.5081 13.6758 3.55968e-05 -46.5071 6.55277 -5.09407 -180 -59.7553 180 6.97682 1.1156 0.0680005 13.1933 8.39725 -15.7988 10.2681 5.72782 -102.178 -0 -0 11.4875 -3.52437e-07 -4.04419 30.242 -2.03946 2.7722e-05 -76.9031 -0.420739 20.1913 -65.6892 -0 -0 56.3188 8.1357e-05 12.0185 -12.1677 -2.56941 8.62267e-06 -29.9072 
11.819 80.057 9.3212 -100.665 -71.8024 131.235 0 -0 0 -2.25554 -2.31294 17.7271 19.7595 -14.1216 -0.000143567 51.9375 -10.196 14.7921 -180 74.0283 -180 -14.2989 5.58738 -0.701423 -10.7833 13.6962 1.46915e-05 -46.9225 6.57641 -5.07372 -180 -59.8222 180 7.10397 1.16238 0.072198 13.2139 8.20285 -16.4556 10.4005 5.72049 -101.262 -0 -0 12.7067 -1.00392e-06 -1.91365 31.5259 -1.00089 7.55456e-06 -75.0026 -0.0798431 20.1745 -65.763 -0 -0 56.7569 7.14056e-05 12.1204 -12.4584 -2.65259 -9.06878e-06 -29.7647 
11.785 79.954 9.2717 -100.217 -71.6588 130.752 0 -0 0 -2.16134 -2.16143 17.8961 19.7933 -13.9489 1.65421e-05 51.7929 -9.74109 14.9301 -180 74.2097 -180 -14.2302 5.69438 -0.711335 -11.0239 13.7234 2.73991e-05 -47.3809 6.62467 -5.02721 -180 -59.9112 180 7.2472 1.22244 0.0773979 13.2926 8.00612 -17.0679 10.5895 5.67114 -100.185 -0 -0 13.626 -9.96496e-07 -0.359099 32.2936 -0.191904 -3.37206e-06 -72.8642 0.243348 20.0996 -65.8245 -0 -0 57.1047 -4.61017e-05 12.2066 -12.6924 -2.72118 -1.69325e-05 -29.6485 
11.75 79.877 9.228 -99.6558 -71.5703 130.202 0 -0 0 -2.10969 -2.07503 17.989 19.8474 -13.7942 6.95295e-05 51.6506 -9.2927 15.0803 -180 74.4195 -180 -14.1751 5.79151 -0.720703 -11.2208 13.7535 5.23452e-05 -47.8641 6.69973 -4.9497 -180 -60.0273 180 7.3962 1.29027 0.0833997 13.4327 7.80315 -17.6308 10.8431 5.57814 -99.0108 -0 -0 14.3521 1.83615e-06 0.4627 32.5301 0.248796 4.23187e-06 -71.137 0.522918 19.9631 -65.8926 -0 -0 57.3582 -4.45959e-05 12.2747 -12.8604 -2.77235 -1.13207e-05 -29.568 
11.719 79.824 9.192 -98.9937 -71.5536 129.607 0 -0 0 -2.11718 -2.05044 17.9936 19.9174 -13.6621 0.000162416 51.53 -8.87055 15.2347 -180 74.6492 -180 -14.1419 5.8744 -0.729279 -11.3701 13.7807 -1.21034e-05 -48.3512 6.80405 -4.84122 -180 -60.1652 180 7.54008 1.36072 0.0896994 13.6287 7.5898 -18.1392 11.1592 5.43418 -97.7988 -0 -0 14.9969 3.24833e-06 0.503895 32.2785 0.269096 8.98169e-07 -70.1716 0.735648 19.7637 -65.9808 -0 -0 57.5159 2.43469e-05 12.3211 -12.9596 -2.80446 -1.72268e-05 -29.5291 
